# xmcd
#
# Track frame offsets:
#	150
#	23847
#	52812
#	80797
#	97849
#	116534
#	133885
#	145294
#	157175
#
# Disc length: 2257 seconds
#
# Revision: 1
# Processed by: cddbd v1.5.1PL2 Copyright (c) Steve Scherf et al.
# Submitted via: audiograbber 1.83.01
#
DISCID=7608cf09
DTITLE=Monsieur Leroc - Le slow motion boogie woogie
DYEAR=1999
DGENRE=
TTITLE0=Monique´s theme
TTITLE1=Le odensaque
TTITLE2=Jazzz
TTITLE3=Funky schluepfer
TTITLE4=I think I
TTITLE5=Full custom sack pt 1
TTITLE6=Unten ohne
TTITLE7=Une boogie pour faye
TTITLE8=Maccaroni cheese sandwich
EXTD=
EXTT0=
EXTT1=
EXTT2=
EXTT3=
EXTT4=
EXTT5=
EXTT6=
EXTT7=
EXTT8=
PLAYORDER=
